<?xml version="1.0" encoding="utf-8"?>
<!-- Generator: Adobe Illustrator 24.0.1, SVG Export Plug-In . SVG Version: 6.00 Build 0)  -->
<svg version="1.1" id="Layer_1" xmlns="http://www.w3.org/2000/svg" xmlns:xlink="http://www.w3.org/1999/xlink" x="0px" y="0px"
	 viewBox="0 0 66.84 22.17" style="enable-background:new 0 0 66.84 22.17;" xml:space="preserve">
<style type="text/css">
	.st0{fill:#F36E30;}
	.st1{fill:#FFFFFF;}
	.st2{fill:url(#SVGID_1_);}
</style>
<g>
	<g>
		<g>
			<path class="st0" d="M66.08,19.23H24.02c-0.42,0-0.76-0.34-0.76-0.76v-4.21c0-0.42,0.34-0.76,0.76-0.76h42.06
				c0.42,0,0.76,0.34,0.76,0.76v4.21C66.84,18.89,66.5,19.23,66.08,19.23z"/>
			<g>
				<path class="st1" d="M26.74,14.58v0.59h-1.52v0.94h1.17v0.58h-1.17v1.54h-0.73v-3.65H26.74z"/>
				<path class="st1" d="M29.66,18.23l-0.8-1.42h-0.34v1.42h-0.73v-3.65h1.37c0.28,0,0.52,0.05,0.72,0.15s0.35,0.23,0.45,0.4
					s0.15,0.36,0.15,0.57c0,0.24-0.07,0.46-0.21,0.65s-0.35,0.33-0.62,0.4l0.87,1.48C30.52,18.23,29.66,18.23,29.66,18.23z
					 M28.51,16.26h0.61c0.2,0,0.35-0.05,0.44-0.14c0.1-0.1,0.15-0.23,0.15-0.4s-0.05-0.3-0.15-0.39s-0.25-0.14-0.44-0.14h-0.61
					V16.26z"/>
				<path class="st1" d="M32.38,15.17v0.91h1.23v0.58h-1.23v0.97h1.38v0.6h-2.12v-3.65h2.12v0.6h-1.38V15.17z"/>
				<path class="st1" d="M35.68,15.17v0.91h1.23v0.58h-1.23v0.97h1.38v0.6h-2.12v-3.65h2.12v0.6h-1.38V15.17z"/>
				<path class="st1" d="M38.99,17.65h1.2v0.58h-1.93v-3.65h0.73V17.65z"/>
				<path class="st1" d="M43.41,17.53h-1.45l-0.24,0.69h-0.77l1.31-3.65h0.85l1.31,3.65h-0.77L43.41,17.53z M43.21,16.95l-0.53-1.53
					l-0.53,1.53H43.21z"/>
				<path class="st1" d="M48.56,18.23h-0.73l-1.66-2.5v2.5h-0.73v-3.65h0.73l1.66,2.51v-2.51h0.73V18.23z"/>
				<path class="st1" d="M49.87,15.43c0.16-0.28,0.38-0.51,0.66-0.66c0.28-0.16,0.59-0.24,0.94-0.24c0.41,0,0.76,0.1,1.07,0.31
					s0.52,0.5,0.64,0.87h-0.84c-0.08-0.17-0.2-0.3-0.35-0.39c-0.15-0.09-0.33-0.13-0.53-0.13c-0.21,0-0.4,0.05-0.57,0.15
					c-0.17,0.1-0.29,0.24-0.39,0.42c-0.09,0.18-0.14,0.39-0.14,0.64c0,0.24,0.05,0.45,0.14,0.63c0.09,0.18,0.22,0.32,0.39,0.42
					s0.35,0.15,0.57,0.15c0.2,0,0.37-0.04,0.53-0.13c0.15-0.09,0.27-0.22,0.35-0.39h0.84c-0.12,0.37-0.34,0.66-0.64,0.87
					c-0.3,0.21-0.66,0.31-1.07,0.31c-0.35,0-0.66-0.08-0.94-0.24s-0.5-0.38-0.66-0.66s-0.24-0.6-0.24-0.96
					C49.63,16.04,49.71,15.72,49.87,15.43z"/>
				<path class="st1" d="M55.07,15.17v0.91h1.23v0.58h-1.23v0.97h1.38v0.6h-2.12v-3.65h2.12v0.6h-1.38V15.17z"/>
				<path class="st1" d="M59.52,18.23l-0.8-1.42h-0.34v1.42h-0.73v-3.65h1.37c0.28,0,0.52,0.05,0.72,0.15s0.35,0.23,0.45,0.4
					c0.1,0.17,0.15,0.36,0.15,0.57c0,0.24-0.07,0.46-0.21,0.65s-0.35,0.33-0.62,0.4l0.87,1.48C60.38,18.23,59.52,18.23,59.52,18.23z
					 M58.37,16.26h0.61c0.2,0,0.35-0.05,0.44-0.14c0.1-0.1,0.15-0.23,0.15-0.4s-0.05-0.3-0.15-0.39c-0.1-0.09-0.25-0.14-0.44-0.14
					h-0.61V16.26z"/>
				<path class="st1" d="M65.06,14.31L65,15.42h-0.5l-0.07-1.11H65.06z"/>
				<path class="st1" d="M62.1,18.13c-0.2-0.09-0.36-0.21-0.48-0.38c-0.12-0.16-0.18-0.36-0.18-0.58h0.78
					c0.01,0.15,0.06,0.27,0.16,0.36s0.23,0.13,0.39,0.13c0.17,0,0.3-0.04,0.4-0.12c0.1-0.08,0.15-0.19,0.15-0.32
					c0-0.11-0.03-0.2-0.1-0.27s-0.15-0.12-0.25-0.16c-0.1-0.04-0.24-0.08-0.41-0.13c-0.24-0.07-0.43-0.14-0.58-0.21
					s-0.28-0.17-0.38-0.31c-0.11-0.14-0.16-0.32-0.16-0.55c0-0.22,0.05-0.4,0.16-0.56c0.11-0.16,0.26-0.28,0.45-0.37
					c0.2-0.09,0.42-0.13,0.67-0.13c0.38,0,0.68,0.09,0.92,0.27c0.24,0.18,0.36,0.44,0.39,0.77h-0.8c-0.01-0.13-0.06-0.23-0.16-0.31
					c-0.1-0.08-0.23-0.12-0.39-0.12c-0.14,0-0.26,0.04-0.34,0.11c-0.09,0.07-0.13,0.18-0.13,0.32c0,0.1,0.03,0.18,0.1,0.24
					c0.06,0.06,0.14,0.12,0.24,0.16c0.1,0.04,0.23,0.09,0.4,0.14c0.24,0.07,0.43,0.14,0.58,0.21s0.28,0.17,0.39,0.31
					c0.11,0.14,0.16,0.32,0.16,0.55c0,0.2-0.05,0.38-0.15,0.54c-0.1,0.17-0.25,0.3-0.44,0.4c-0.2,0.1-0.43,0.15-0.69,0.15
					C62.53,18.26,62.3,18.22,62.1,18.13z"/>
			</g>
		</g>
		<g>
			<g>
				<g>
					<path class="st1" d="M23.73,12.28c-0.3-0.22-0.45-0.53-0.48-0.94h1.17c0.01,0.14,0.05,0.24,0.12,0.3
						c0.07,0.06,0.16,0.1,0.27,0.1c0.1,0,0.18-0.03,0.25-0.08s0.1-0.12,0.1-0.21c0-0.12-0.05-0.21-0.16-0.27s-0.28-0.13-0.53-0.21
						c-0.26-0.09-0.47-0.17-0.62-0.25c-0.16-0.08-0.3-0.2-0.41-0.35c-0.12-0.15-0.18-0.36-0.18-0.61s0.06-0.47,0.19-0.65
						c0.13-0.18,0.3-0.32,0.53-0.41c0.22-0.09,0.48-0.14,0.76-0.14c0.46,0,0.83,0.11,1.1,0.32s0.42,0.52,0.44,0.9h-1.19
						c0-0.12-0.04-0.21-0.11-0.27s-0.16-0.09-0.27-0.09c-0.08,0-0.15,0.02-0.2,0.07c-0.05,0.05-0.08,0.12-0.08,0.21
						c0,0.07,0.03,0.14,0.09,0.19c0.06,0.05,0.13,0.1,0.22,0.14s0.21,0.09,0.38,0.15c0.25,0.09,0.46,0.17,0.62,0.25
						c0.16,0.08,0.3,0.2,0.42,0.35c0.12,0.15,0.18,0.34,0.18,0.57c0,0.24-0.06,0.45-0.18,0.63c-0.12,0.19-0.29,0.33-0.51,0.44
						s-0.48,0.16-0.79,0.16C24.4,12.61,24.02,12.5,23.73,12.28z"/>
				</g>
			</g>
			<g>
				<g>
					<path class="st1" d="M30.38,8.62v3.95h-1.1v-1.59h-1.34v1.59h-1.1V8.62h1.1v1.48h1.34V8.62H30.38z"/>
				</g>
			</g>
			<g>
				<g>
					<path class="st1" d="M33.51,11.93h-1.4l-0.21,0.64h-1.15l1.44-3.95h1.27l1.43,3.95h-1.16L33.51,11.93z M33.23,11.09L32.8,9.81
						l-0.42,1.28H33.23z"/>
				</g>
			</g>
			<g>
				<g>
					<path class="st1" d="M38.77,8.62v3.95h-1.1v-1.59h-1.34v1.59h-1.1V8.62h1.1v1.48h1.34V8.62H38.77z"/>
				</g>
			</g>
			<path class="st0" d="M41.57,9.5v0.64h1.26v0.83h-1.26v0.71H43v0.88h-2.53V8.62H43V9.5H41.57z"/>
			<path class="st0" d="M48.15,8.62v3.95h-1.1v-2.18l-0.75,2.18h-0.92l-0.75-2.2v2.2h-1.1V8.62h1.33l0.99,2.57l0.97-2.57H48.15z"/>
			<path class="st0" d="M51.43,8.87c0.31,0.17,0.55,0.4,0.72,0.7c0.17,0.3,0.25,0.64,0.25,1.03c0,0.38-0.08,0.72-0.25,1.02
				c-0.17,0.3-0.41,0.53-0.72,0.7s-0.67,0.25-1.08,0.25h-1.56V8.62h1.56C50.75,8.62,51.12,8.7,51.43,8.87z M51.01,11.34
				c0.18-0.18,0.27-0.42,0.27-0.75c0-0.32-0.09-0.58-0.27-0.75c-0.18-0.18-0.44-0.27-0.76-0.27h-0.38v2.03h0.38
				C50.58,11.6,50.83,11.51,51.01,11.34z"/>
			<path class="st0" d="M55.39,11.93h-1.4l-0.21,0.64h-1.15l1.44-3.95h1.27l1.43,3.95h-1.16L55.39,11.93z M55.12,11.09l-0.43-1.28
				l-0.42,1.28H55.12z"/>
			<path class="st0" d="M59.78,8.87c0.31,0.17,0.55,0.4,0.72,0.7c0.17,0.3,0.25,0.64,0.25,1.03c0,0.38-0.08,0.72-0.25,1.02
				c-0.17,0.3-0.41,0.53-0.72,0.7s-0.67,0.25-1.08,0.25h-1.56V8.62h1.56C59.1,8.62,59.46,8.7,59.78,8.87z M59.36,11.34
				c0.18-0.18,0.27-0.42,0.27-0.75c0-0.32-0.09-0.58-0.27-0.75c-0.18-0.18-0.44-0.27-0.76-0.27h-0.38v2.03h0.38
				C58.92,11.6,59.18,11.51,59.36,11.34z"/>
			<path class="st0" d="M62.34,8.62v3.95h-1.1V8.62H62.34z"/>
			<path class="st0" d="M65.47,11.93h-1.4l-0.21,0.64H62.7l1.44-3.95h1.27l1.43,3.95h-1.16L65.47,11.93z M65.19,11.09l-0.43-1.28
				l-0.42,1.28H65.19z"/>
		</g>
	</g>
	<g>
		
			<linearGradient id="SVGID_1_" gradientUnits="userSpaceOnUse" x1="210.0605" y1="-249.1653" x2="215.4781" y2="-249.1653" gradientTransform="matrix(1 0 0 -1 -199.7008 -237.0753)">
			<stop  offset="0.1753" style="stop-color:#F36E30"/>
			<stop  offset="1" style="stop-color:#EAA52F"/>
		</linearGradient>
		<path class="st2" d="M15.76,10.62c-0.07,0.47-0.28,0.96-0.65,1.46c-0.23,0.31-0.48,0.61-0.76,0.91l-0.33-0.63
			c-0.02-0.04-0.01-0.09,0.03-0.11l0.6-0.4c0.05-0.03,0.05-0.11,0-0.14l-2.29-1.43c-0.06-0.04-0.13,0.01-0.13,0.08l0.29,2.72
			c0.01,0.06,0.08,0.1,0.13,0.06l0.62-0.39c0.04-0.02,0.09-0.01,0.12,0.02l0.47,0.71c-0.04,0.03-0.07,0.07-0.1,0.1
			c-0.53,0.47-1.11,0.89-1.7,1.26c-0.44,0.28-0.86,0.51-1.25,0.68c-0.02,0.01-0.04,0.01-0.05,0.01c-0.04,0-0.11-0.08-0.15-0.21
			c-0.06-0.19-0.11-0.37-0.14-0.55c-0.31-1.51,0.17-3.2,1.33-4.65c0.38-0.47,0.8-0.85,1.26-1.14c0.36-0.22,0.72-0.33,1.09-0.33
			c0.09,0,0.17,0.01,0.26,0.02c0.25,0.03,0.47,0.11,0.64,0.23c0.19,0.12,0.33,0.27,0.46,0.45c0.12,0.17,0.2,0.37,0.25,0.59
			C15.78,10.14,15.79,10.38,15.76,10.62z"/>
		<g>
			<g>
				<path class="st1" d="M7.58,9.35c0.54-0.67,1.16-1.28,1.85-1.81c0.69-0.54,1.45-0.99,2.23-1.33c0.79-0.35,1.62-0.59,2.47-0.73
					c0.47-0.08,0.95-0.12,1.43-0.12c0.39,0,0.79,0.03,1.18,0.08c0.27,0.03,0.53,0.09,0.78,0.15l-0.98-2.26c0,0-3.05-0.4-6.57,0.7
					c0.1-0.08,1.89-1.26,6.57-1.41L19.63,0H8.36L0,7.65h1v3.37c-0.11,0.06-0.19,0.17-0.19,0.31c0,0.13,0.08,0.25,0.19,0.31v0.94l0,0
					L0.51,15c-0.02,0.08,0.05,0.16,0.13,0.16h1.13c0.09,0,0.15-0.08,0.13-0.16l-0.58-2.41v-0.96c0.11-0.06,0.19-0.17,0.19-0.31
					c0-0.13-0.08-0.25-0.19-0.31V7.65h2.81l1.83,4.57c0.08-0.22,0.17-0.44,0.26-0.66C6.57,10.76,7.03,10.02,7.58,9.35z"/>
			</g>
			<g>
				<path class="st1" d="M20.15,18.09c-0.07-0.02-0.13-0.03-0.2-0.03c-0.2,0.02-0.41,0.15-0.58,0.28c-1.06,0.78-2.35,1.49-3.64,1.78
					c-1.86,0.42-3.67-0.53-4.76-2.02c-0.18-0.25-0.07-0.6,0.23-0.7c0.33-0.11,0.7-0.25,1.09-0.42c0.64-0.27,1.31-0.6,2.02-0.97
					c0.7-0.38,1.4-0.8,2.1-1.26c0.69-0.46,1.33-0.94,1.9-1.45c0.57-0.5,1.04-1.01,1.42-1.54s0.61-1.05,0.67-1.56
					c0.08-0.62,0.04-1.17-0.13-1.66c-0.17-0.48-0.43-0.9-0.78-1.24c-0.35-0.34-0.77-0.62-1.26-0.82c-0.49-0.2-1.02-0.34-1.58-0.42
					c-0.81-0.11-1.62-0.1-2.42,0.03s-1.57,0.36-2.32,0.69s-1.44,0.74-2.1,1.25C9.16,8.54,8.58,9.11,8.07,9.75
					c-0.51,0.63-0.94,1.32-1.27,2.08c-0.34,0.75-0.56,1.53-0.67,2.34C6,15.15,6.04,16.1,6.26,17c0.35,1.44,1.15,2.72,2.31,3.65
					c1.61,1.29,3.75,1.76,5.77,1.41c0.76-0.13,1.49-0.35,2.2-0.65c0.71-0.3,1.38-0.68,2.01-1.13c0.54-0.39,1.03-0.85,1.55-1.27
					c0.16-0.13,0.31-0.3,0.31-0.51C20.42,18.32,20.31,18.15,20.15,18.09z M9.9,15.91c-0.06-0.22-0.12-0.44-0.17-0.66
					c-0.42-2.01,0.35-4.07,1.6-5.64c0.46-0.57,0.97-1.03,1.54-1.39c0.57-0.36,1.16-0.49,1.77-0.41c0.34,0.05,0.63,0.15,0.88,0.31
					c0.25,0.16,0.45,0.36,0.61,0.6c0.16,0.24,0.27,0.5,0.34,0.8c0.06,0.3,0.07,0.6,0.03,0.91c-0.08,0.59-0.35,1.2-0.8,1.83
					s-1,1.22-1.63,1.77c-0.63,0.55-1.3,1.05-2.01,1.49c-0.53,0.33-1.02,0.6-1.48,0.81C10.23,16.49,9.99,16.2,9.9,15.91z"/>
			</g>
		</g>
	</g>
</g>
</svg>
